<svg id="visual" viewBox="0 0 900 600" width="900" height="600" xmlns="http://www.w3.org/2000/svg" xmlns:xlink="http://www.w3.org/1999/xlink" version="1.1"><rect x="0" y="0" width="900" height="600" fill="#9fc9e1"></rect><defs><linearGradient id="grad1_0" x1="33.3%" y1="0%" x2="100%" y2="100%"><stop offset="20%" stop-color="#9fc9e1" stop-opacity="1"></stop><stop offset="80%" stop-color="#9fc9e1" stop-opacity="1"></stop></linearGradient></defs><defs><linearGradient id="grad2_0" x1="0%" y1="0%" x2="66.7%" y2="100%"><stop offset="20%" stop-color="#9fc9e1" stop-opacity="1"></stop><stop offset="80%" stop-color="#9fc9e1" stop-opacity="1"></stop></linearGradient></defs><g transform="translate(900, 0)"><path d="M0 486.7C-19.3 414.6 -38.5 342.5 -54.9 311.2C-71.2 279.9 -84.6 289.5 -110.1 302.6C-135.6 315.7 -173.2 332.4 -178 308.3C-182.8 284.2 -154.9 219.2 -180 214.5C-205.1 209.7 -283.2 265.2 -334.8 280.9C-386.4 296.6 -411.5 272.6 -421.5 243.4C-431.6 214.2 -426.6 179.7 -407.8 148.4C-389 117.1 -356.5 89 -367.3 64.8C-378.2 40.6 -432.5 20.3 -486.7 0L0 0Z" fill="#efcf9d"></path></g><g transform="translate(0, 600)"><path d="M0 -486.7C15.4 -409.3 30.8 -331.9 58.9 -333.8C86.9 -335.8 127.6 -417.3 162.1 -445.4C196.7 -473.5 225.1 -448.3 243.4 -421.5C261.7 -394.7 269.9 -366.3 289.9 -345.5C309.9 -324.6 341.8 -311.3 328.6 -275.8C315.5 -240.2 257.4 -182.3 287.5 -166C317.7 -149.7 436.2 -174.8 438.8 -159.7C441.5 -144.6 328.4 -89.2 317.1 -55.9C305.8 -22.6 396.3 -11.3 486.7 0L0 0Z" fill="#efcf9d"></path></g></svg>