<svg id="visual" viewBox="0 0 900 600" width="900" height="600" xmlns="http://www.w3.org/2000/svg" xmlns:xlink="http://www.w3.org/1999/xlink" version="1.1"><g stroke-width="1" stroke-linejoin="bevel"><path d="M509 264L567 213L523 233Z" fill="#112e42" stroke="#112e42"></path><path d="M509 264L629 332L567 213Z" fill="#15384f" stroke="#15384f"></path><path d="M509 264L591 370L629 332Z" fill="#112e42" stroke="#112e42"></path><path d="M710 407L695 311L629 332Z" fill="#081a28" stroke="#081a28"></path><path d="M629 332L695 311L567 213Z" fill="#277297" stroke="#277297"></path><path d="M567 213L519 128L523 233Z" fill="#15384f" stroke="#15384f"></path><path d="M523 233L436 160L509 264Z" fill="#205a7a" stroke="#205a7a"></path><path d="M630 66L519 128L567 213Z" fill="#19435d" stroke="#19435d"></path><path d="M423 375L490 416L509 264Z" fill="#246688" stroke="#246688"></path><path d="M509 264L490 416L591 370Z" fill="#297ea6" stroke="#297ea6"></path><path d="M519 128L436 160L523 233Z" fill="#277297" stroke="#277297"></path><path d="M695 311L738 225L567 213Z" fill="#15384f" stroke="#15384f"></path><path d="M361 320L423 375L509 264Z" fill="#0c2435" stroke="#0c2435"></path><path d="M591 370L710 407L629 332Z" fill="#00101c" stroke="#00101c"></path><path d="M695 311L785 333L738 225Z" fill="#277297" stroke="#277297"></path><path d="M699 492L710 407L591 370Z" fill="#277297" stroke="#277297"></path><path d="M436 160L361 320L509 264Z" fill="#1d4e6b" stroke="#1d4e6b"></path><path d="M723 101L630 66L567 213Z" fill="#205a7a" stroke="#205a7a"></path><path d="M383 63L338 164L436 160Z" fill="#15384f" stroke="#15384f"></path><path d="M710 407L785 333L695 311Z" fill="#00101c" stroke="#00101c"></path><path d="M766 126L723 101L738 225Z" fill="#00101c" stroke="#00101c"></path><path d="M738 225L723 101L567 213Z" fill="#277297" stroke="#277297"></path><path d="M819 161L766 126L738 225Z" fill="#00101c" stroke="#00101c"></path><path d="M383 63L436 160L519 128Z" fill="#00101c" stroke="#00101c"></path><path d="M436 160L338 164L361 320Z" fill="#19435d" stroke="#19435d"></path><path d="M362 514L504 519L490 416Z" fill="#00101c" stroke="#00101c"></path><path d="M490 416L504 519L591 370Z" fill="#246688" stroke="#246688"></path><path d="M362 514L490 416L423 375Z" fill="#19435d" stroke="#19435d"></path><path d="M623 532L699 492L591 370Z" fill="#19435d" stroke="#19435d"></path><path d="M710 407L785 432L785 333Z" fill="#0c2435" stroke="#0c2435"></path><path d="M338 164L307 279L361 320Z" fill="#0c2435" stroke="#0c2435"></path><path d="M361 320L309 388L423 375Z" fill="#081a28" stroke="#081a28"></path><path d="M504 519L623 532L591 370Z" fill="#19435d" stroke="#19435d"></path><path d="M699 492L785 432L710 407Z" fill="#15384f" stroke="#15384f"></path><path d="M660 0L585 0L630 66Z" fill="#0c2435" stroke="#0c2435"></path><path d="M630 66L585 0L519 128Z" fill="#0c2435" stroke="#0c2435"></path><path d="M660 0L630 66L723 101Z" fill="#205a7a" stroke="#205a7a"></path><path d="M900 231L819 161L738 225Z" fill="#205a7a" stroke="#205a7a"></path><path d="M829 0L660 0L723 101Z" fill="#15384f" stroke="#15384f"></path><path d="M900 231L738 225L785 333Z" fill="#1d4e6b" stroke="#1d4e6b"></path><path d="M585 0L517 0L519 128Z" fill="#112e42" stroke="#112e42"></path><path d="M517 0L383 63L519 128Z" fill="#246688" stroke="#246688"></path><path d="M307 279L309 388L361 320Z" fill="#297ea6" stroke="#297ea6"></path><path d="M829 0L723 101L766 126Z" fill="#1d4e6b" stroke="#1d4e6b"></path><path d="M335 501L362 514L423 375Z" fill="#246688" stroke="#246688"></path><path d="M499 600L628 600L623 532Z" fill="#19435d" stroke="#19435d"></path><path d="M699 492L817 468L785 432Z" fill="#19435d" stroke="#19435d"></path><path d="M900 378L900 314L785 333Z" fill="#277297" stroke="#277297"></path><path d="M805 600L817 468L699 492Z" fill="#0c2435" stroke="#0c2435"></path><path d="M517 0L395 0L383 63Z" fill="#205a7a" stroke="#205a7a"></path><path d="M383 63L287 69L338 164Z" fill="#19435d" stroke="#19435d"></path><path d="M309 388L335 501L423 375Z" fill="#0c2435" stroke="#0c2435"></path><path d="M499 600L623 532L504 519Z" fill="#0c2435" stroke="#0c2435"></path><path d="M623 532L691 600L699 492Z" fill="#297ea6" stroke="#297ea6"></path><path d="M900 314L900 231L785 333Z" fill="#205a7a" stroke="#205a7a"></path><path d="M819 161L900 120L766 126Z" fill="#297ea6" stroke="#297ea6"></path><path d="M383 600L504 519L362 514Z" fill="#15384f" stroke="#15384f"></path><path d="M383 600L499 600L504 519Z" fill="#0c2435" stroke="#0c2435"></path><path d="M900 378L785 333L785 432Z" fill="#112e42" stroke="#112e42"></path><path d="M279 0L287 69L383 63Z" fill="#19435d" stroke="#19435d"></path><path d="M173 173L187 287L307 279Z" fill="#205a7a" stroke="#205a7a"></path><path d="M307 279L209 375L309 388Z" fill="#19435d" stroke="#19435d"></path><path d="M817 468L900 378L785 432Z" fill="#0c2435" stroke="#0c2435"></path><path d="M628 600L691 600L623 532Z" fill="#00101c" stroke="#00101c"></path><path d="M900 231L900 120L819 161Z" fill="#112e42" stroke="#112e42"></path><path d="M187 287L209 375L307 279Z" fill="#277297" stroke="#277297"></path><path d="M309 388L209 493L335 501Z" fill="#0c2435" stroke="#0c2435"></path><path d="M319 600L362 514L335 501Z" fill="#112e42" stroke="#112e42"></path><path d="M319 600L383 600L362 514Z" fill="#112e42" stroke="#112e42"></path><path d="M900 120L829 0L766 126Z" fill="#19435d" stroke="#19435d"></path><path d="M173 173L307 279L338 164Z" fill="#15384f" stroke="#15384f"></path><path d="M900 600L900 468L817 468Z" fill="#0c2435" stroke="#0c2435"></path><path d="M817 468L900 468L900 378Z" fill="#297ea6" stroke="#297ea6"></path><path d="M395 0L279 0L383 63Z" fill="#1d4e6b" stroke="#1d4e6b"></path><path d="M287 69L173 173L338 164Z" fill="#112e42" stroke="#112e42"></path><path d="M691 600L805 600L699 492Z" fill="#0c2435" stroke="#0c2435"></path><path d="M177 91L173 173L287 69Z" fill="#297ea6" stroke="#297ea6"></path><path d="M209 493L319 600L335 501Z" fill="#19435d" stroke="#19435d"></path><path d="M109 376L209 493L209 375Z" fill="#19435d" stroke="#19435d"></path><path d="M209 375L209 493L309 388Z" fill="#0c2435" stroke="#0c2435"></path><path d="M109 376L209 375L187 287Z" fill="#1d4e6b" stroke="#1d4e6b"></path><path d="M900 120L900 0L829 0Z" fill="#112e42" stroke="#112e42"></path><path d="M184 0L177 91L287 69Z" fill="#19435d" stroke="#19435d"></path><path d="M805 600L900 600L817 468Z" fill="#081a28" stroke="#081a28"></path><path d="M279 0L184 0L287 69Z" fill="#277297" stroke="#277297"></path><path d="M74 303L109 376L187 287Z" fill="#297ea6" stroke="#297ea6"></path><path d="M105 180L187 287L173 173Z" fill="#081a28" stroke="#081a28"></path><path d="M105 180L173 173L177 91Z" fill="#19435d" stroke="#19435d"></path><path d="M66 84L105 180L177 91Z" fill="#1d4e6b" stroke="#1d4e6b"></path><path d="M209 493L211 600L319 600Z" fill="#112e42" stroke="#112e42"></path><path d="M115 600L211 600L209 493Z" fill="#277297" stroke="#277297"></path><path d="M105 180L74 303L187 287Z" fill="#00101c" stroke="#00101c"></path><path d="M74 535L115 600L209 493Z" fill="#081a28" stroke="#081a28"></path><path d="M81 0L66 84L177 91Z" fill="#1d4e6b" stroke="#1d4e6b"></path><path d="M105 180L0 277L74 303Z" fill="#297ea6" stroke="#297ea6"></path><path d="M184 0L81 0L177 91Z" fill="#0c2435" stroke="#0c2435"></path><path d="M74 535L209 493L109 376Z" fill="#277297" stroke="#277297"></path><path d="M0 367L109 376L74 303Z" fill="#112e42" stroke="#112e42"></path><path d="M0 490L74 535L109 376Z" fill="#246688" stroke="#246688"></path><path d="M0 163L0 277L105 180Z" fill="#297ea6" stroke="#297ea6"></path><path d="M0 163L105 180L66 84Z" fill="#1d4e6b" stroke="#1d4e6b"></path><path d="M0 277L0 367L74 303Z" fill="#19435d" stroke="#19435d"></path><path d="M0 73L0 163L66 84Z" fill="#297ea6" stroke="#297ea6"></path><path d="M0 0L0 73L66 84Z" fill="#297ea6" stroke="#297ea6"></path><path d="M0 367L0 490L109 376Z" fill="#081a28" stroke="#081a28"></path><path d="M74 535L0 600L115 600Z" fill="#277297" stroke="#277297"></path><path d="M81 0L0 0L66 84Z" fill="#0c2435" stroke="#0c2435"></path><path d="M0 490L0 600L74 535Z" fill="#205a7a" stroke="#205a7a"></path></g></svg>