<svg width="863" height="827" viewBox="0 0 863 827" fill="none" xmlns="http://www.w3.org/2000/svg">
<g clip-path="url(#clip0_1_2)">
<path d="M740.085 309.387C695.168 132.765 539.968 5.26939 357.796 0.15564C261.488 -2.54787 160.144 29.3934 86.3586 141.168C-45.5411 340.976 94.4642 479.05 192.072 544.66C239.229 576.421 281.719 614.612 318.313 658.125C384.244 736.363 511.08 833.584 662.137 681.253C771.622 570.843 770.003 427.034 740.085 309.387Z" fill="#F2F2F2"/>
<path d="M862 702.714C862 746.069 672.811 826.714 434.5 826.714C196.189 826.714 0 751.069 0 707.714C0 664.36 196.189 669.714 434.5 669.714C672.811 669.714 862 659.36 862 702.714Z" fill="#3F3D56"/>
<path opacity="0.1" d="M862 702.714C862 746.069 672.811 826.714 434.5 826.714C196.189 826.714 0 751.069 0 707.714C0 664.36 196.189 669.714 434.5 669.714C672.811 669.714 862 659.36 862 702.714Z" fill="#CB2525"/>
<path d="M431.5 785.714C669.811 785.714 863 750.569 863 707.214C863 663.86 669.811 628.714 431.5 628.714C193.189 628.714 0 663.86 0 707.214C0 750.569 193.189 785.714 431.5 785.714Z" fill="#878211"/>
<path d="M594.859 440.238V650.182L629.976 707.413L632.649 711.766H771.212L774.011 440.238H594.859Z" fill="#AFABEA"/>
<path opacity="0.1" d="M594.859 440.238V650.182L629.976 707.413L632.131 440.238H594.859Z" fill="black"/>
<path d="M260.348 434.639V644.583L225.231 701.814L222.558 706.167H83.994L81.195 434.639H260.348Z" fill="#AFABEA"/>
<path opacity="0.1" d="M260.348 434.639V644.583L225.231 701.814L223.075 434.639H260.348Z" fill="black"/>
<path d="M816 430.44V443.037H63V424.842L132.981 388.452H754.416L816 430.44Z" fill="#DEBAA6"/>
<path opacity="0.1" d="M816 430.44V443.037H63V424.842L816 430.44Z" fill="black"/>
<path opacity="0.1" d="M170.771 493.424H137.18L123.184 483.626H186.167L170.771 493.424Z" fill="black"/>
<path opacity="0.1" d="M170.771 534.013H137.18L123.184 524.215H186.167L170.771 534.013Z" fill="black"/>
<path opacity="0.1" d="M170.771 591.398H137.18L123.184 581.6H186.167L170.771 591.398Z" fill="black"/>
<path opacity="0.1" d="M170.771 648.782H137.18L123.184 638.985H186.167L170.771 648.782Z" fill="black"/>
<path opacity="0.1" d="M684.435 499.022H718.026L732.022 489.225H669.039L684.435 499.022Z" fill="black"/>
<path opacity="0.1" d="M684.435 539.611H718.026L732.022 529.814H669.039L684.435 539.611Z" fill="black"/>
<path opacity="0.1" d="M684.435 596.996H718.026L732.022 587.199H669.039L684.435 596.996Z" fill="black"/>
<path opacity="0.1" d="M684.435 654.381H718.026L732.022 644.583H669.039L684.435 654.381Z" fill="black"/>
<path d="M532.516 353.427L527.847 383.234C527.847 383.234 504.863 395.444 521.024 395.804C537.184 396.163 613.319 395.804 613.319 395.804C613.319 395.804 628.043 395.804 604.7 382.875L600.031 351.631L532.516 353.427Z" fill="#3F3D56"/>
<path opacity="0.1" d="M517.773 395.48C520.911 392.942 524.285 390.71 527.847 388.812L532.516 359.004L600.031 359.068L604.7 388.452C608.536 390.432 612.152 392.812 615.489 395.551C618.487 394.867 621.763 392.325 604.7 382.875L600.031 351.631L532.516 353.427L527.847 383.234C527.847 383.234 508.534 393.496 517.773 395.48Z" fill="black"/>
<path d="M707.31 145.672H424.519C418.613 145.672 413.824 150.46 413.824 156.367V346.862C413.824 352.768 418.613 357.557 424.519 357.557H707.31C713.216 357.557 718.005 352.768 718.005 346.862V156.367C718.005 150.46 713.216 145.672 707.31 145.672Z" fill="#3F3D56"/>
<path d="M707.77 156.984H424.059V315.718H707.77V156.984Z" fill="#F2F2F2"/>
<path d="M565.914 153.752C566.906 153.752 567.71 152.948 567.71 151.957C567.71 150.965 566.906 150.161 565.914 150.161C564.923 150.161 564.119 150.965 564.119 151.957C564.119 152.948 564.923 153.752 565.914 153.752Z" fill="#F2F2F2"/>
<path d="M718.005 328.288V346.862C718.005 348.266 717.728 349.657 717.191 350.955C716.654 352.252 715.866 353.431 714.873 354.424C713.879 355.418 712.7 356.205 711.403 356.743C710.105 357.28 708.714 357.557 707.31 357.557H424.519C423.115 357.557 421.724 357.28 420.426 356.743C419.129 356.205 417.949 355.418 416.956 354.424C415.963 353.431 415.175 352.252 414.638 350.955C414.101 349.657 413.824 348.266 413.824 346.862V328.288H718.005Z" fill="#3F3D56"/>
<path d="M565.914 349.835C569.683 349.835 572.738 346.78 572.738 343.012C572.738 339.243 569.683 336.189 565.914 336.189C562.146 336.189 559.091 339.243 559.091 343.012C559.091 346.78 562.146 349.835 565.914 349.835Z" fill="#F2F2F2"/>
<path d="M555.281 415.196V418.788H362.071V415.915L362.337 415.196L367.099 402.268H551.331L555.281 415.196Z" fill="#3F3D56"/>
<path d="M629.635 411.681C629.283 413.185 627.954 414.773 624.952 416.274C614.178 421.661 592.272 414.837 592.272 414.837C592.272 414.837 575.393 411.964 575.393 404.423C575.866 404.098 576.361 403.804 576.872 403.543C581.402 401.146 596.42 395.233 623.05 403.793C625.012 404.409 626.764 405.557 628.112 407.11C628.709 407.697 629.158 408.418 629.423 409.212C629.688 410.007 629.761 410.853 629.635 411.681V411.681Z" fill="#3F3D56"/>
<path opacity="0.1" d="M629.635 411.681C616.448 416.733 604.694 417.111 592.631 408.732C586.547 404.509 581.02 403.464 576.872 403.543C581.402 401.146 596.42 395.233 623.05 403.793C625.012 404.409 626.764 405.557 628.112 407.11C628.709 407.697 629.158 408.418 629.423 409.212C629.688 410.007 629.761 410.853 629.635 411.681V411.681Z" fill="black"/>
<path d="M613.101 408.732C615.679 408.732 617.77 408.089 617.77 407.296C617.77 406.502 615.679 405.859 613.101 405.859C610.522 405.859 608.432 406.502 608.432 407.296C608.432 408.089 610.522 408.732 613.101 408.732Z" fill="#F2F2F2"/>
<path opacity="0.1" d="M555.281 415.196V418.788H362.071V415.915L362.337 415.196H555.281Z" fill="black"/>
<path d="M394.639 194.141C415.762 194.141 432.886 177.018 432.886 155.895C432.886 134.771 415.762 117.648 394.639 117.648C373.516 117.648 356.392 134.771 356.392 155.895C356.392 177.018 373.516 194.141 394.639 194.141Z" fill="#FFB9B9"/>
<path d="M366.457 175.018V235.407H428.86C428.86 235.407 420.808 185.083 424.834 169.985L366.457 175.018Z" fill="#FFB9B9"/>
<path d="M490.256 256.544C490.256 256.544 430.873 227.355 430.873 225.342C430.873 223.329 424.834 210.245 420.808 210.245C416.782 210.245 382.561 199.174 363.438 215.278L361.425 228.362L287.951 276.674L308.081 350.147C308.081 350.147 321.165 364.238 317.139 374.303C313.113 384.368 320.159 435.699 320.159 435.699L478.178 430.667V362.225C478.178 362.225 483.21 346.121 486.23 341.089C489.249 336.057 486.23 320.959 486.23 320.959L510.386 290.764C510.386 290.764 507.366 262.583 490.256 256.544Z" fill="#D0CDE1"/>
<path opacity="0.1" d="M290.467 301.333L294.996 276.674C294.996 276.674 268.828 390.407 271.847 403.491C274.867 416.576 297.009 436.706 300.029 437.712C303.048 438.719 331.23 351.154 331.23 351.154L290.467 301.333Z" fill="black"/>
<path d="M305.061 273.654L287.951 276.673C287.951 276.673 261.782 390.407 264.802 403.491C267.821 416.576 289.964 436.706 292.983 437.712C296.003 438.719 324.185 351.154 324.185 351.154L305.061 273.654Z" fill="#D0CDE1"/>
<path opacity="0.1" d="M495.791 307.371L504.347 290.764C504.347 290.764 516.425 404.498 508.373 415.569C500.321 426.641 468.47 430.784 468.47 430.784L468.113 348.134L495.791 307.371Z" fill="black"/>
<path d="M497.301 277.68L510.386 290.764C510.386 290.764 522.463 404.498 514.412 415.569C506.36 426.641 474.509 430.784 474.509 430.784L474.152 348.134L497.301 277.68Z" fill="#D0CDE1"/>
<path d="M302.042 450.796C302.042 450.796 272.854 439.725 267.821 460.861C262.789 481.998 279.899 576.608 279.899 576.608C279.899 576.608 290.97 648.069 298.016 650.082C305.061 652.095 336.263 653.101 341.295 644.043C346.327 634.984 326.198 542.387 326.198 542.387L442.951 540.374C442.951 540.374 435.905 620.894 431.879 627.939C427.853 634.984 427.853 659.14 431.879 659.14C435.905 659.14 480.191 657.127 483.21 651.088C486.23 645.049 503.34 509.173 503.34 509.173C503.34 509.173 517.431 461.868 501.327 464.887C485.223 467.907 302.042 450.796 302.042 450.796Z" fill="#3F3D56"/>
<path d="M474.152 647.062C474.152 647.062 484.217 640.017 489.249 647.062C494.282 654.108 496.295 662.16 474.152 674.238C452.009 686.316 434.899 683.296 434.899 681.283V652.095L474.152 647.062Z" fill="#2F2E41"/>
<path d="M300.029 644.043C300.029 644.043 289.964 636.997 284.931 644.043C279.899 651.088 277.886 659.14 300.029 671.218C322.172 683.296 339.282 680.277 339.282 678.264V649.075L300.029 644.043Z" fill="#2F2E41"/>
<path d="M394.887 107.669C391.078 107.537 387.275 108.079 383.654 109.27C380.846 110.399 378.164 111.818 375.651 113.504L358.765 124.005C357.332 124.625 356.114 125.656 355.266 126.968C354.418 128.279 353.977 129.813 353.999 131.375L351.889 147.176C351.357 151.164 350.866 155.429 352.651 159.034C354.141 162.044 356.982 164.103 359.319 166.515C363.058 170.39 365.574 175.28 366.555 180.576C367.763 187.173 366.99 195.118 372.211 199.328C375.038 201.608 378.891 202.039 382.517 202.251C392.431 202.83 402.377 202.447 412.217 201.108C413.782 200.991 415.307 200.564 416.705 199.851C418.48 198.801 419.597 196.948 420.642 195.169C424.412 188.75 428.299 181.92 428.258 174.475C428.238 170.792 427.295 166.837 429.064 163.606C429.998 162.232 431.013 160.915 432.101 159.661C434.291 156.584 434.717 152.631 435.074 148.871C436.214 136.862 435.022 127.724 426.172 119.265C417.91 111.368 406.155 107.742 394.887 107.669Z" fill="#2F2E41"/>
<path d="M300.937 569.703L267.346 740.458H284.141L316.333 572.503L300.937 569.703Z" fill="#2F2E41"/>
<path d="M408.708 583.7L429.703 779.648H443.699L431.102 578.101L408.708 583.7Z" fill="#2F2E41"/>
<path d="M466.093 578.101L495.485 708.267H509.481L481.489 575.302L466.093 578.101Z" fill="#2F2E41"/>
<path d="M354.123 578.101L349.924 681.674H361.121L369.519 578.101H354.123Z" fill="#2F2E41"/>
<path d="M277.143 551.508C277.143 551.508 254.749 401.748 317.732 397.549C380.716 393.35 470.292 397.549 470.292 397.549C470.292 397.549 522.078 393.35 506.682 551.508C506.682 551.508 520.678 597.696 394.712 593.497C268.745 589.298 277.143 551.508 277.143 551.508Z" fill="#262DD5"/>
<path d="M851 612.665C851 638.78 835.475 647.899 816.324 647.899C797.172 647.899 781.647 638.78 781.647 612.665C781.647 586.55 816.324 553.327 816.324 553.327C816.324 553.327 851 586.55 851 612.665Z" fill="#00FF00"/>
<path d="M815.416 622.048L830.195 595.009L815.471 618.619L815.631 608.792L825.817 589.229L815.673 606.191L815.96 588.516L826.868 572.942L816.005 585.737L816.185 553.327L815.106 594.394L804.06 577.487L814.972 597.859L813.939 617.599L813.908 617.075L801.123 599.212L813.869 618.926L813.74 621.395L813.717 621.432L813.728 621.635L811.106 647.977H814.609L815.029 645.849L827.744 626.182L815.06 643.904L815.416 622.048Z" fill="#3F3D56"/>
<path d="M838.47 704.549H797.129L786.445 644.163H846.831L838.47 704.549Z" fill="#2F2E41"/>
<path d="M231 296.3H145V397.128H231V296.3Z" fill="#3F3D56"/>
<path d="M217.655 311.946H158.345V381.482H217.655V311.946Z" fill="#F2F2F2"/>
<path d="M194.409 355.428C195.922 355.247 197.07 353.739 197.017 351.929C196.965 350.119 195.661 348.672 194.096 348.672H193.991C192.374 348.732 191.122 350.3 191.174 352.17C191.226 353.075 191.539 353.859 192.009 354.402C190.235 358.444 187.522 361.399 183.452 363.873C180.687 365.562 177.817 366.165 174.948 365.743C172.6 365.381 170.774 364.174 169.626 362.184C167.956 359.228 167.8 356.031 169.209 352.834C170.2 350.541 171.765 348.852 172.756 348.008C172.548 347.224 172.235 345.897 172.078 344.932C164.513 351.265 165.295 359.831 167.591 363.873C169.313 366.889 172.809 368.759 176.669 368.759C177.713 368.759 178.756 368.638 179.8 368.337C186.478 366.828 191.539 362.244 194.409 355.428V355.428ZM203.591 347.948C199.626 342.579 193.783 339.623 187.104 339.623H186.27C185.8 338.538 184.809 337.814 183.713 337.814H183.609C181.991 337.874 180.739 339.442 180.791 341.312C180.843 343.122 182.148 344.57 183.713 344.57H183.817C184.965 344.509 185.956 343.665 186.374 342.519H187.313C191.278 342.519 195.035 343.846 198.426 346.44C201.035 348.43 202.913 351.024 203.957 354.161C204.843 356.694 204.791 359.167 203.852 361.279C202.391 364.476 199.939 366.225 196.704 366.225C194.617 366.225 192.635 365.501 191.591 364.958C191.017 365.562 189.974 366.527 189.243 367.13C191.487 368.336 193.783 369 195.974 369C200.983 369 204.687 365.803 206.096 362.606C207.609 359.107 207.504 353.075 203.591 347.948V347.948ZM177.087 356.453C177.139 358.263 178.443 359.71 180.009 359.71H180.113C181.73 359.65 182.982 358.082 182.93 356.212C182.878 354.402 181.574 352.954 180.009 352.954H179.904C179.8 352.954 179.643 352.954 179.539 353.014C177.4 348.913 176.513 344.449 176.826 339.623C177.035 336.004 178.078 332.867 179.904 330.273C181.417 328.041 184.339 326.956 186.322 326.895C191.852 326.775 194.2 334.737 194.356 337.934C195.035 338.115 196.183 338.537 196.965 338.839C196.339 329.067 191.122 324 186.113 324C181.417 324 177.087 327.921 175.365 333.712C172.965 341.433 174.53 348.852 177.452 354.704C177.191 355.126 177.035 355.789 177.087 356.453V356.453Z" fill="#764ABC"/>
<path d="M623.925 214.945C622.357 214.434 620.778 213.957 619.187 213.516C619.451 212.49 619.694 211.459 619.917 210.422C623.505 193.752 621.159 180.322 613.153 175.901C605.487 171.659 592.914 176.08 580.232 186.65C578.985 187.693 577.763 188.768 576.567 189.873C575.77 189.139 574.952 188.42 574.114 187.717C560.821 176.414 547.498 171.653 539.501 176.089C531.835 180.34 529.556 192.964 532.785 208.764C533.108 210.326 533.471 211.882 533.874 213.431C531.988 213.943 530.167 214.491 528.425 215.071C512.86 220.271 502.906 228.425 502.906 236.88C502.906 245.616 513.59 254.376 529.82 259.688C531.137 260.115 532.465 260.513 533.806 260.88C533.371 262.538 532.986 264.215 532.65 265.91C529.584 281.438 531.976 293.763 539.626 297.987C547.529 302.35 560.785 297.867 573.707 287.057C574.729 286.201 575.751 285.298 576.773 284.347C578.065 285.54 579.394 286.698 580.759 287.821C593.27 298.128 605.625 302.291 613.263 298.055C621.159 293.678 623.726 280.436 620.393 264.325C620.137 263.095 619.843 261.839 619.509 260.558C620.442 260.294 621.354 260.021 622.248 259.74C639.113 254.388 650.1 245.733 650.1 236.889C650.094 228.393 639.821 220.187 623.925 214.945ZM584.368 191.191C595.233 182.136 605.389 178.562 610.019 181.116C614.947 183.838 616.863 194.813 613.766 209.206C613.562 210.144 613.341 211.078 613.104 212.01C606.62 210.601 600.046 209.606 593.423 209.033C589.632 203.815 585.476 198.848 580.983 194.165C582.083 193.146 583.209 192.154 584.362 191.191H584.368ZM546.366 244.104C547.697 246.565 549.088 248.996 550.54 251.396C552.018 253.846 553.558 256.259 555.161 258.636C550.604 258.162 546.076 257.465 541.595 256.547C542.895 252.527 544.496 248.353 546.366 244.104ZM546.366 229.945C544.527 225.788 542.969 221.698 541.69 217.749C545.891 216.85 550.368 216.114 555.035 215.558C553.471 217.89 551.967 220.256 550.521 222.656C549.076 225.057 547.688 227.486 546.357 229.945H546.366ZM549.709 237.026C551.647 233.165 553.734 229.378 555.97 225.665C558.205 221.954 560.583 218.328 563.106 214.787C567.485 214.471 571.974 214.304 576.509 214.304C581.044 214.304 585.561 214.471 589.937 214.79C592.433 218.323 594.797 221.937 597.03 225.63C599.262 229.323 601.377 233.093 603.374 236.938C601.403 240.813 599.294 244.616 597.045 248.347C594.815 252.058 592.464 255.694 589.992 259.257C585.623 259.55 581.1 259.711 576.5 259.711C571.9 259.711 567.463 259.573 563.173 259.307C560.632 255.754 558.234 252.112 555.98 248.382C553.725 244.651 551.631 240.866 549.7 237.026H549.709ZM602.488 251.355C603.97 248.898 605.393 246.409 606.756 243.888C608.625 247.937 610.275 252.075 611.699 256.286C607.165 257.262 602.581 258.01 597.965 258.527C599.523 256.166 601.03 253.775 602.488 251.355ZM606.695 229.948C605.338 227.478 603.926 225.036 602.46 222.624C601.029 220.245 599.538 217.896 597.986 215.575C602.681 216.144 607.186 216.899 611.408 217.822C610.05 221.937 608.477 225.984 606.695 229.948V229.948ZM576.571 198.469C579.632 201.665 582.524 205.007 585.233 208.482C579.438 208.219 573.638 208.219 567.834 208.482C570.695 204.867 573.624 201.513 576.571 198.469ZM542.665 181.295C547.59 178.564 558.479 182.467 569.956 192.214C570.689 192.838 571.428 193.491 572.164 194.168C567.648 198.85 563.463 203.813 559.635 209.024C553.027 209.593 546.466 210.572 539.991 211.954C539.617 210.517 539.28 209.069 538.979 207.612C536.204 194.068 538.041 183.858 542.665 181.295ZM535.487 255.079C534.26 254.745 533.049 254.383 531.853 253.992C524.678 251.648 518.75 248.59 514.681 245.259C511.038 242.273 509.192 239.294 509.192 236.88C509.192 231.75 517.183 225.205 530.51 220.767C532.184 220.21 533.873 219.701 535.576 219.24C537.555 225.317 539.952 231.263 542.751 237.038C539.919 242.893 537.492 248.92 535.487 255.079V255.079ZM569.564 282.521C563.851 287.303 558.129 290.692 553.085 292.4C548.553 293.933 544.944 293.977 542.763 292.772C538.121 290.209 536.189 280.31 538.823 267.032C539.136 265.47 539.494 263.907 539.896 262.345C546.436 263.691 553.063 264.61 559.733 265.096C563.598 270.334 567.818 275.325 572.366 280.037C571.453 280.896 570.517 281.722 569.564 282.521ZM576.745 275.719C573.765 272.64 570.79 269.232 567.89 265.57C570.709 265.676 573.579 265.729 576.5 265.729C579.499 265.729 582.467 265.667 585.393 265.541C582.693 269.072 579.807 272.469 576.745 275.719V275.719ZM614.928 284.095C614.051 288.618 612.288 291.636 610.108 292.843C605.468 295.415 595.549 292.072 584.853 283.257C583.626 282.249 582.4 281.168 581.152 280.034C585.611 275.304 589.733 270.293 593.488 265.034C600.195 264.491 606.854 263.508 613.42 262.09C613.72 263.25 613.986 264.387 614.217 265.5C615.692 272.619 615.903 279.059 614.928 284.095V284.095ZM620.264 254.024C619.46 254.279 618.632 254.525 617.792 254.766C615.734 248.66 613.243 242.695 610.338 236.912C613.134 231.206 615.527 225.328 617.501 219.316C619.007 219.735 620.469 220.175 621.877 220.641C635.498 225.129 643.808 231.773 643.808 236.88C643.808 242.329 634.832 249.401 620.264 254.024V254.024Z" fill="black"/>
<path d="M576.5 249.466C579.11 249.474 581.663 248.742 583.837 247.363C586.011 245.983 587.708 244.019 588.712 241.718C589.717 239.416 589.984 236.882 589.48 234.436C588.976 231.989 587.724 229.741 585.882 227.975C584.039 226.209 581.69 225.005 579.131 224.516C576.572 224.026 573.919 224.273 571.507 225.226C569.095 226.178 567.033 227.792 565.583 229.865C564.132 231.938 563.357 234.375 563.357 236.868C563.354 238.52 563.691 240.156 564.35 241.684C565.008 243.211 565.976 244.599 567.196 245.769C568.417 246.939 569.867 247.868 571.463 248.502C573.059 249.136 574.771 249.464 576.5 249.466Z" fill="black"/>
</g>
<defs>
<clipPath id="clip0_1_2">
<rect width="863" height="826.714" fill="white"/>
</clipPath>
</defs>
</svg>
